<svg width="22" height="20" viewBox="0 0 22 20" fill="none" xmlns="http://www.w3.org/2000/svg">
<path d="M4.99948 0L17.3108 12.3556L19.5041 10.1544L20.9628 11.6184L18.4075 14.183L21.6974 17.4848C22.1009 17.8897 22.1009 18.5438 21.6974 18.9487L20.9628 19.6859C20.8671 19.7822 20.7534 19.8585 20.6283 19.9106C20.5031 19.9627 20.369 19.9896 20.2335 19.9896C20.098 19.9896 19.9638 19.9627 19.8387 19.9106C19.7135 19.8585 19.5998 19.7822 19.5041 19.6859L16.1728 16.3945L13.6485 18.9591L12.1897 17.4951L14.383 15.294L2.07166 2.93835V0H4.99948ZM15.0244 7.84945L19.9283 2.92797V0H17.0005L12.0966 4.92148L15.0244 7.84945ZM9.90333 13.0409L6.97551 10.061L4.68911 12.3556L2.49583 10.1544L1.03709 11.6184L3.59247 14.183L0.302553 17.4951C0.206645 17.5912 0.130555 17.7053 0.0786389 17.8309C0.0267228 17.9565 0 18.0911 0 18.2271C0 18.3631 0.0267228 18.4978 0.0786389 18.6234C0.130555 18.749 0.206645 18.8631 0.302553 18.9591L1.03709 19.6963C1.44058 20.1012 2.09235 20.1012 2.49583 19.6963L5.82714 16.3945L8.35148 18.9591L9.81022 17.4951L7.61694 15.294L9.90333 13.0409V13.0409Z" fill="white"/>
</svg>
