<svg width="18" height="16" viewBox="0 0 18 16" fill="none" xmlns="http://www.w3.org/2000/svg">
<path d="M4.09049 0L14.1634 9.88449L15.9579 8.12356L17.1514 9.29474L15.0607 11.3464L17.7524 13.9878C18.0825 14.3117 18.0825 14.835 17.7524 15.159L17.1514 15.7487C17.0731 15.8257 16.9801 15.8868 16.8777 15.9285C16.7753 15.9702 16.6655 15.9916 16.5547 15.9916C16.4438 15.9916 16.334 15.9702 16.2316 15.9285C16.1292 15.8868 16.0362 15.8257 15.9579 15.7487L13.2323 13.1156L11.1669 15.1673L9.97341 13.9961L11.7679 12.2352L1.695 2.35068V0H4.09049ZM12.2927 6.27956L16.305 2.34238V0H13.9095L9.89723 3.93718L12.2927 6.27956ZM8.10273 10.4327L5.70723 8.0488L3.83655 9.88449L2.04205 8.12356L0.848532 9.29474L2.9393 11.3464L0.247543 13.9961C0.169073 14.073 0.106818 14.1642 0.0643409 14.2647C0.0218641 14.3652 0 14.4729 0 14.5817C0 14.6905 0.0218641 14.7982 0.0643409 14.8987C0.106818 14.9992 0.169073 15.0905 0.247543 15.1673L0.848532 15.757C1.17865 16.081 1.71193 16.081 2.04205 15.757L4.76766 13.1156L6.83303 15.1673L8.02654 13.9961L6.23204 12.2352L8.10273 10.4327V10.4327Z" fill="#585858"/>
</svg>
