<svg width="49" height="55" viewBox="0 0 49 55" fill="none" xmlns="http://www.w3.org/2000/svg">
<g filter="url(#filter0_d)">
<rect x="1" width="47" height="47" rx="4" fill="#F61067"/>
</g>
<g clip-path="url(#clip0)">
<path d="M26.076 11.1303L23.9006 8.95501V29.3486L26.0986 29.4166L26.076 11.1303ZM24.8523 41.902H22.9489C22.7391 41.9022 22.5313 41.861 22.3373 41.7808C22.1434 41.7006 21.9672 41.583 21.8189 41.4346C21.6705 41.2862 21.5528 41.11 21.4726 40.9161C21.3924 40.7222 21.3512 40.5143 21.3514 40.3045V33.2347L15.3013 33.2121L15.3013 30.0171L18.519 30.0171L18.519 9.80474L23.9006 4.4231L29.2823 9.80474L29.2823 30.0171L32.4999 30.0171V33.2121L26.4498 33.2121V40.2818C26.4498 41.1882 25.7361 41.902 24.8523 41.902Z" fill="white"/>
</g>
<defs>
<filter id="filter0_d" x="0" y="0" width="49" height="55" filterUnits="userSpaceOnUse" color-interpolation-filters="sRGB">
<feFlood flood-opacity="0" result="BackgroundImageFix"/>
<feColorMatrix in="SourceAlpha" type="matrix" values="0 0 0 0 0 0 0 0 0 0 0 0 0 0 0 0 0 0 127 0"/>
<feMorphology radius="3" operator="erode" in="SourceAlpha" result="effect1_dropShadow"/>
<feOffset dy="7"/>
<feGaussianBlur stdDeviation="2"/>
<feColorMatrix type="matrix" values="0 0 0 0 0 0 0 0 0 0 0 0 0 0 0 0 0 0 0.21 0"/>
<feBlend mode="normal" in2="BackgroundImageFix" result="effect1_dropShadow"/>
<feBlend mode="normal" in="SourceGraphic" in2="effect1_dropShadow" result="shape"/>
</filter>
<clipPath id="clip0">
<rect width="38.4545" height="38.4545" fill="white" transform="translate(5.27271 4.27271)"/>
</clipPath>
</defs>
</svg>
