<svg width="24" height="24" viewBox="0 0 24 24" fill="none" xmlns="http://www.w3.org/2000/svg">
<path d="M14.8375 19.0013C14.6881 19.0018 14.5405 18.9688 14.4055 18.9048C14.2705 18.8407 14.1516 18.7473 14.0575 18.6313L9.22749 12.6313C9.08041 12.4523 9 12.2279 9 11.9963C9 11.7646 9.08041 11.5402 9.22749 11.3613L14.2275 5.36125C14.3972 5.15704 14.6411 5.02861 14.9056 5.00423C15.17 4.97985 15.4333 5.06151 15.6375 5.23125C15.8417 5.40099 15.9701 5.6449 15.9945 5.90933C16.0189 6.17375 15.9372 6.43704 15.7675 6.64125L11.2975 12.0013L15.6175 17.3613C15.7398 17.508 15.8174 17.6868 15.8413 17.8763C15.8652 18.0659 15.8343 18.2583 15.7522 18.4308C15.6702 18.6034 15.5404 18.7488 15.3783 18.8499C15.2162 18.9509 15.0285 19.0035 14.8375 19.0013Z" fill="white" fill-opacity="0.7"/>
</svg>
